<?xml version="1.0" encoding="utf-8"?>
<svg xmlns="http://www.w3.org/2000/svg" viewBox="0 0 48 48" width="64" height="64">
  <linearGradient id="sQuHWIJj4ILlbCRFFb9HVa" x1="16.285" x2="34.77" y1="2.804" y2="53.591" gradientUnits="userSpaceOnUse">
    <stop offset="0" stop-color="#f44f5a" />
    <stop offset=".443" stop-color="#ee3d4a" />
    <stop offset="1" stop-color="#e52030" />
  </linearGradient>
  <path fill="url(#sQuHWIJj4ILlbCRFFb9HVa)" d="M30.261,42H17.739C9.84,42,6,38.16,6,30.261V17.739C6,9.84,9.84,6,17.739,6h12.522C38.16,6,42,9.84,42,17.739v11.739C42,38.021,38.27,42,30.261,42z" />
  <path d="M24,10.5c7.456,0,13.5,6.044,13.5,13.5S31.456,37.5,24,37.5S10.5,31.456,10.5,24S16.544,10.5,24,10.5 M24,9.5 C16.005,9.5,9.5,16.005,9.5,24S16.005,38.5,24,38.5S38.5,31.995,38.5,24S31.995,9.5,24,9.5L24,9.5z" opacity=".05" />
  <path d="M24,10.5c7.456,0,13.5,6.044,13.5,13.5S31.456,37.5,24,37.5S10.5,31.456,10.5,24S16.544,10.5,24,10.5 M24,10 c-7.72,0-14,6.28-14,14s6.28,14,14,14s14-6.28,14-14S31.72,10,24,10L24,10z" opacity=".07" />
  <linearGradient id="sQuHWIJj4ILlbCRFFb9HVb" x1="13.353" x2="42.114" y1="13.353" y2="42.114" gradientUnits="userSpaceOnUse">
    <stop offset="0" stop-color="#f9f9f9" />
    <stop offset=".26" stop-color="#f0f1f2" />
    <stop offset=".678" stop-color="#d9dcdf" />
    <stop offset="1" stop-color="#c2c8cc" />
  </linearGradient>
  <circle cx="24" cy="24" r="13.5" fill="url(#sQuHWIJj4ILlbCRFFb9HVb)" />
  <linearGradient id="sQuHWIJj4ILlbCRFFb9HVc" x1="17.687" x2="36.011" y1="2.192" y2="52.538" gradientUnits="userSpaceOnUse">
    <stop offset="0" stop-color="#f44f5a" />
    <stop offset=".443" stop-color="#ee3d4a" />
    <stop offset="1" stop-color="#e52030" />
  </linearGradient>
  <path fill="url(#sQuHWIJj4ILlbCRFFb9HVc)" d="M32.674,20.716c-2.223,3.853-4.446,7.706-6.669,11.567c-0.411,0.72-1.013,1.147-1.835,1.21c-0.918,0.063-1.646-0.324-2.112-1.116c-1.408-2.413-2.801-4.842-4.193-7.263c-0.847-1.472-1.701-2.943-2.548-4.423c-0.854-1.487,0.111-3.299,1.82-3.386c0.902-0.047,1.598,0.372,2.057,1.155c0.625,1.068,1.242,2.152,1.867,3.228c0.451,0.775,0.886,1.559,1.345,2.318c0.665,1.116,1.646,1.741,2.951,1.82c1.843,0.111,3.56-1.226,3.782-3.18c0.016-0.142,0.024-0.293,0.032-0.364c-0.008-0.633-0.127-1.171-0.38-1.669c-0.688-1.377,0.047-2.919,1.543-3.252c1.218-0.269,2.484,0.625,2.642,1.859C33.054,19.751,32.943,20.249,32.674,20.716L32.674,20.716z" />
</svg>